<?xml version="1.0" encoding="utf-8"?>
<!-- Generator: Adobe Illustrator 19.0.0, SVG Export Plug-In . SVG Version: 6.00 Build 0)  -->
<svg version="1.1" id="Capa_1" xmlns="http://www.w3.org/2000/svg" xmlns:xlink="http://www.w3.org/1999/xlink" x="0px" y="0px"
	 viewBox="0 0 227.2 139.4" style="enable-background:new 0 0 227.2 139.4;" xml:space="preserve">
<style type="text/css">
	.st0{fill:#2E3192;}
	.st1{fill:#2A2A86;}
	.st2{fill:none;}
	.st3{fill:#036DB2;}
	.st4{fill:#6F2C91;}
	.st5{fill:#5C489B;}
	.st6{fill:#425DA7;}
	.st7{fill:#007DBF;}
	.st8{fill:#008CCC;}
</style>
<g>
	<g>
		<path class="st0" d="M65.6,104.2h-0.7V92.6h0.7V104.2z"/>
		<path class="st0" d="M71.8,98.2L71.8,98.2c0.4-0.8,1.2-1.3,2.1-1.3c1.8,0,2.3,1.1,2.3,3v4.3h-0.7v-4.3c0-1.3-0.2-2.3-1.7-2.3
			c-1.8,0-2.1,1.7-2.1,3.1v3.5h-0.7v-7.1h0.7V98.2z"/>
		<path class="st0" d="M83.9,102.9l2.5-5.9h0.7l-3.2,7.5l-3.3-7.5h0.7L83.9,102.9z"/>
		<path class="st0" d="M91.5,100.7c0,1.8,1.2,3,2.8,3c1.1,0,2-0.7,2.5-1.6l0.6,0.3c-0.6,1.2-1.8,1.9-3.2,1.9c-2.1,0-3.4-1.7-3.4-3.7
			c0-2,1.4-3.7,3.4-3.7c2.2,0,3.4,1.7,3.4,3.8H91.5z M97,100c-0.2-1.3-1.2-2.5-2.7-2.5c-1.4,0-2.6,1.1-2.8,2.5H97z"/>
		<path class="st0" d="M103.1,98L103.1,98c0.3-0.6,0.8-1.1,1.6-1.1c0.3,0,0.5,0.1,0.8,0.2l-0.4,0.6c-0.2-0.1-0.3-0.1-0.5-0.1
			c-1.6,0-1.5,1.9-1.5,3v3.6h-0.7v-7.1h0.7V98z"/>
		<path class="st0" d="M112.8,98.3c-0.2-0.5-0.7-0.8-1.2-0.8c-0.6,0-1.2,0.5-1.2,1.1c0,1.7,3.5,0.9,3.5,3.4c0,1.3-1,2.2-2.3,2.2
			c-1.2,0-2.2-0.7-2.4-1.9l0.7-0.2c0.3,0.8,0.8,1.4,1.8,1.4c0.9,0,1.6-0.7,1.6-1.6c0-0.9-0.7-1.2-1.4-1.4c-1-0.4-2.1-0.8-2.1-2
			c0-1.1,0.9-1.8,1.9-1.8c0.7,0,1.5,0.5,1.8,1.1L112.8,98.3z"/>
		<path class="st0" d="M119.9,94.7c0,0.4-0.3,0.6-0.6,0.6c-0.4,0-0.6-0.3-0.6-0.6c0-0.3,0.3-0.6,0.6-0.6
			C119.6,94.1,119.9,94.3,119.9,94.7z M119.6,104.2h-0.7v-7.1h0.7V104.2z"/>
		<path class="st0" d="M132,100.6c0,2.1-1.6,3.7-3.7,3.7c-2,0-3.7-1.7-3.7-3.7c0-2,1.6-3.7,3.7-3.7C130.4,96.9,132,98.5,132,100.6z
			 M125.3,100.6c0,1.6,1.3,3,3,3c1.7,0,3.1-1.3,3.1-3c0-1.8-1.3-3.1-3.1-3.1C126.6,97.5,125.3,99,125.3,100.6z"/>
		<path class="st0" d="M137.5,98.2L137.5,98.2c0.4-0.8,1.2-1.3,2.1-1.3c1.8,0,2.3,1.1,2.3,3v4.3h-0.7v-4.3c0-1.3-0.2-2.3-1.7-2.3
			c-1.8,0-2.1,1.7-2.1,3.1v3.5h-0.7v-7.1h0.7V98.2z"/>
		<path class="st0" d="M147.4,100.7c0,1.8,1.2,3,2.8,3c1.1,0,2-0.7,2.5-1.6l0.6,0.3c-0.6,1.2-1.8,1.9-3.2,1.9
			c-2.1,0-3.4-1.7-3.4-3.7c0-2,1.4-3.7,3.4-3.7c2.2,0,3.4,1.7,3.4,3.8H147.4z M152.9,100c-0.2-1.3-1.2-2.5-2.7-2.5
			c-1.4,0-2.6,1.1-2.8,2.5H152.9z"/>
		<path class="st0" d="M161.3,98.3c-0.2-0.5-0.7-0.8-1.2-0.8c-0.6,0-1.2,0.5-1.2,1.1c0,1.7,3.5,0.9,3.5,3.4c0,1.3-1,2.2-2.3,2.2
			c-1.2,0-2.2-0.7-2.4-1.9l0.7-0.2c0.3,0.8,0.8,1.4,1.8,1.4c0.9,0,1.6-0.7,1.6-1.6c0-0.9-0.7-1.2-1.4-1.4c-1-0.4-2.1-0.8-2.1-2
			c0-1.1,0.9-1.8,1.9-1.8c0.7,0,1.5,0.5,1.8,1.1L161.3,98.3z"/>
	</g>
	<g>
		<path class="st1" d="M16.9,138.8H0v-26.9h1.4v25.7h15.5V138.8z"/>
		<path class="st1" d="M39,133.3h1.4c0.3,0.8,0.6,1.3,0.9,1.6c1.7,2.1,3.8,3.2,6.3,3.2c1.6,0,3-0.4,4.1-1.1c0.9-0.6,1.5-1.3,2.1-2.2
			c0.5-0.9,0.8-1.9,0.8-2.8c0-1.6-0.8-3.1-2.5-4.4c-0.4-0.3-1-0.7-1.6-1c-0.6-0.3-1.2-0.6-1.6-0.9c-0.5-0.2-1.1-0.6-1.9-1
			c-0.8-0.4-1.4-0.7-1.7-0.9c-1.5-0.8-2.6-1.6-3.3-2.6c-0.8-1.1-1.2-2.2-1.2-3.5c0-1.2,0.3-2.3,1-3.3c0.7-1,1.7-1.8,2.9-2.3
			c1.1-0.5,2.3-0.7,3.7-0.7v1.2c-1.2,0-2.2,0.2-3.2,0.6c-1.7,0.7-2.7,1.9-3,3.5c-0.1,0.6-0.1,1.3,0.1,2s0.5,1.4,0.8,1.8
			c0.3,0.3,0.6,0.7,1.1,1.1c0.5,0.4,0.9,0.6,1.2,0.8s0.8,0.4,1.7,0.9c0.8,0.4,1.2,0.6,1.3,0.7c2.4,1.2,4,2.1,4.7,2.7
			c2,1.5,3,3.3,3,5.4c0,2.5-1.1,4.5-3.4,6.1c-1.3,0.9-2.9,1.4-4.8,1.4c-3.4,0-5.9-1.3-7.6-3.8C39.6,134.9,39.3,134.1,39,133.3z"/>
		<path class="st1" d="M91.8,130.8h1.5c-1.1,2.6-2.7,4.7-5,6.2c-2.3,1.6-4.8,2.4-7.7,2.4c-3.8,0-7.1-1.4-9.7-4.1c-2.7-2.7-4-6-4-9.9
			c0-3.9,1.4-7.3,4.3-10.1c2.7-2.6,5.8-3.9,9.5-3.9c2.6,0,5.1,0.8,7.4,2.3c2.2,1.5,3.9,3.4,5,5.8h-1.6c-1.1-2.1-2.6-3.7-4.5-4.9
			c-2-1.3-4.1-1.9-6.4-1.9c-3.2,0-6.1,1.2-8.5,3.6c-2.6,2.6-3.9,5.7-3.9,9.2c0,3.5,1.2,6.5,3.6,9c2.4,2.5,5.3,3.8,8.8,3.8
			c2.4,0,4.6-0.7,6.7-2.1C89.3,134.8,90.8,133,91.8,130.8z"/>
		<path class="st1" d="M114.8,111.9h1.4v15.9c0,1.3,0,2.3-0.1,3c0,0.7-0.2,1.5-0.5,2.5c-0.3,1-0.8,1.8-1.4,2.7
			c-2,2.3-4.7,3.5-8.1,3.5c-3.4,0-6.1-1.2-8-3.5c-0.6-0.8-1.1-1.7-1.4-2.7c-0.3-1-0.5-1.8-0.5-2.5s-0.1-1.7-0.1-3v-15.9h1.4v15.9
			c0,1.2,0,2.2,0.1,2.8c0,0.6,0.2,1.4,0.4,2.2c0.3,0.9,0.6,1.6,1.2,2.3c1.8,2,4.1,3.1,7,3.1c2.9,0,5.2-1,7-3
			c0.5-0.7,0.9-1.4,1.2-2.3c0.3-0.9,0.4-1.6,0.4-2.2c0-0.6,0.1-1.6,0.1-2.8V111.9z"/>
		<path class="st1" d="M129.1,111.3l11.9,27.5h-1.5l-10.9-25.1l-0.1,0l-10.2,25.1h-1.5l11.1-27.5H129.1z M135.6,123.2l-0.8-1.7
			l4.2-10.2h1.1l11.3,27.5h-1.5l-10.4-25.1l0,0L135.6,123.2z"/>
		<path class="st1" d="M166.3,125.3c0.9,0.4,1.6,0.9,2.2,1.4c1.3,1.3,1.9,2.9,1.9,5c0,2-0.4,3.5-1.2,4.6c-0.7,1-1.7,1.7-3.1,2.1
			c-1,0.3-2.4,0.4-4.1,0.4h-8.2v-14.6h5.9c1.2,0,2.4-0.1,3.5-0.4c1.5-0.3,2.6-0.9,3.3-1.7c1-1,1.4-2.4,1.2-4.2
			c-0.1-1.4-0.8-2.6-1.9-3.6c-1-0.8-2-1.2-3-1.2h-7.6v9.9h-1.4v-11.1h9c1.4,0,2.7,0.5,3.9,1.4c1.4,1.1,2.2,2.6,2.4,4.5
			c0.2,2.1-0.3,3.8-1.5,5.1c-0.9,1-2.3,1.7-4.1,2.1c-1.1,0.3-2.4,0.4-3.8,0.4h-4.5v12.2h6.8c1.5,0,2.7-0.1,3.5-0.3
			c1.2-0.3,2-0.9,2.5-1.6c0.6-0.9,1-2.2,1-3.9c0-1.8-0.5-3.1-1.5-4.1c-0.7-0.7-1.7-1.3-2.9-1.6C165.1,125.8,165.6,125.6,166.3,125.3
			z"/>
		<path class="st1" d="M175.7,124h-1.4v-12h9.6c2.3,0,4,0.8,5.3,2.3c1,1.3,1.6,2.8,1.6,4.6c0,2.8-1.1,4.9-3.4,6.2
			c-1.6,0.9-3.7,1.4-6.2,1.4h-5.4v12.4h-1.4v-13.6h1.4h5.4c2.2,0,4-0.4,5.3-1.1c1.9-1.1,2.9-2.8,2.9-5.2c0-1.6-0.4-2.9-1.3-3.9
			c-1-1.2-2.4-1.8-4.1-1.8h-8.2V124z M186.8,126.6l-1.3,0.4l5.8,11.8l1.5-0.1L186.8,126.6z"/>
		<path class="st1" d="M195.5,125.6v-13.7h13.8v1.2h-12.4v11.3h6.9v1.2H195.5z M210.3,138.8h-14.8v-11.9h1.4v10.7h13.4V138.8z"/>
		<path class="st1" d="M210.2,133.3h1.4c0.3,0.8,0.6,1.3,0.9,1.6c1.7,2.1,3.8,3.2,6.3,3.2c1.6,0,3-0.4,4.1-1.1
			c0.9-0.6,1.5-1.3,2.1-2.2c0.5-0.9,0.8-1.9,0.8-2.8c0-1.6-0.8-3.1-2.5-4.4c-0.4-0.3-1-0.7-1.6-1c-0.6-0.3-1.2-0.6-1.6-0.9
			c-0.5-0.2-1.1-0.6-1.9-1c-0.8-0.4-1.4-0.7-1.7-0.9c-1.5-0.8-2.6-1.6-3.3-2.6c-0.8-1.1-1.2-2.2-1.2-3.5c0-1.2,0.3-2.3,1-3.3
			c0.7-1,1.7-1.8,2.9-2.3c1.1-0.5,2.3-0.7,3.7-0.7v1.2c-1.2,0-2.2,0.2-3.2,0.6c-1.7,0.7-2.7,1.9-3,3.5c-0.1,0.6-0.1,1.3,0.1,2
			s0.5,1.4,0.8,1.8c0.3,0.3,0.6,0.7,1.1,1.1s0.9,0.6,1.2,0.8c0.3,0.2,0.8,0.4,1.7,0.9c0.8,0.4,1.2,0.6,1.3,0.7
			c2.4,1.2,4,2.1,4.7,2.7c2,1.5,3,3.3,3,5.4c0,2.5-1.1,4.5-3.4,6.1c-1.3,0.9-2.9,1.4-4.8,1.4c-3.4,0-5.9-1.3-7.6-3.8
			C210.9,134.9,210.5,134.1,210.2,133.3z"/>
		<g>
			<polygon class="st1" points="27.5,113.3 27.5,113.3 33.5,128.8 34.9,128.8 28.3,111.3 26.7,111.3 20.1,128.9 21.6,128.8 			"/>
			<polygon class="st1" points="35.4,130.1 33.9,130.1 34.4,131.3 34.4,131.3 37.3,138.8 38.7,138.8 			"/>
			<polygon class="st1" points="17.8,138.7 21.1,130.1 19.7,130.1 16.4,138.8 17.8,138.8 17.8,138.7 			"/>
		</g>
	</g>
</g>
<g>
	<path class="st2" d="M114.5,8l-7.3,7.3l14,14l9.1-9.1L118.1,8C117.1,7,115.5,7,114.5,8z"/>
	<path class="st2" d="M83.9,41l-3.1,3.1l12.8,12.8l6.1-6.1L89.9,41C88.2,39.3,85.5,39.3,83.9,41z"/>
	<path class="st2" d="M88.8,9.6L67.6,30.8l7.2,7.2l9.1-9.1c1.7-1.7,4.4-1.7,6,0l15.8,15.8l3-3c0,0,0.1,0,0.1-0.1l8.2-8.2L93,9.6
		C91.8,8.4,90,8.4,88.8,9.6z"/>
	<path class="st3" d="M89.9,28.9c-1.7-1.7-4.4-1.7-6,0L74.8,38l6,6l3.1-3.1c1.7-1.7,4.4-1.7,6,0l9.7,9.7l6-6L89.9,28.9z"/>
	<path class="st4" d="M114.5,8c1-1,2.6-1,3.6,0l12.2,12.2l3.6-3.6L118.1,0.7c-1-1-2.6-1-3.6,0l-10.9,10.9l3.6,3.6L114.5,8z"/>
	<path class="st5" d="M107.2,15.3l-3.6-3.6L93,1.1C91.8,0,90,0,88.8,1.1L57.4,32.6c0,0-0.1,0.1-0.1,0.1l2.5-2.5c2-2,5.2-2,7.2,0
		l0.6,0.6L88.8,9.6c1.2-1.2,3.1-1.2,4.2,0l23.9,23.9l4.2-4.2L107.2,15.3z"/>
	<path class="st6" d="M176.8,49.2l-35.1-35.1c-1.5-1.5-3.9-1.5-5.4,0l-2.4,2.4l-3.6,3.6l-9.1,9.1l-4.2,4.2l-8.2,8.2
		c2.3-2.3,6.1-2.2,8.4,0.1l1.2,1.2l18-18c1.5-1.5,3.9-1.5,5.4,0l29.6,29.6c1.5,1.5,3.9,1.5,5.4,0C178.2,53.1,178.2,50.7,176.8,49.2z
		"/>
	<path class="st7" d="M80.8,44.1l-6-6l-7.2-7.2L67,30.2c-2-2-5.2-2-7.2,0l-2.5,2.5L31,59c-2,2-2,5.2,0,7.2c2,2,5.2,2,7.2,0
		l21.5-21.5c2-2,5.2-2,7.2,0l19.4,19.4l7.2-7.2L80.8,44.1z"/>
	<path class="st8" d="M151.8,76.5L118.3,43l-1.2-1.2c-2.3-2.3-6-2.3-8.4-0.1l-3,3l0,0l-6,6l-6.1,6.1l-7.2,7.2l-13,13
		c-2.3,2.3-2.3,6.1,0,8.4c2.3,2.3,6.1,2.3,8.4,0l26.9-26.9c2.3-2.3,6.1-2.3,8.4,0l26.3,26.3c2.3,2.3,6.1,2.3,8.4,0l0,0
		C154.1,82.6,154.1,78.8,151.8,76.5z"/>
</g>
</svg>
