<?xml version="1.0" encoding="utf-8"?>
<!-- Generator: Adobe Illustrator 19.0.0, SVG Export Plug-In . SVG Version: 6.00 Build 0)  -->
<svg version="1.1" id="Capa_1" xmlns="http://www.w3.org/2000/svg" xmlns:xlink="http://www.w3.org/1999/xlink" x="0px" y="0px"
	 viewBox="0 0 391.4 87.3" style="enable-background:new 0 0 391.4 87.3;" xml:space="preserve">
<style type="text/css">
	.st0{fill:none;}
	.st1{fill:#036DB2;}
	.st2{fill:#6F2C91;}
	.st3{fill:#5C489B;}
	.st4{fill:#425DA7;}
	.st5{fill:#007DBF;}
	.st6{fill:#008CCC;}
	.st7{fill:#2E3192;}
	.st8{fill:#2A2A86;}
</style>
<g>
	<path class="st0" d="M85,8l-7.3,7.3l14,14l9.1-9.1L88.6,8C87.6,7,86,7,85,8z"/>
	<path class="st0" d="M54.4,41l-3.1,3.1l12.8,12.8l6.1-6.1L60.4,41C58.8,39.3,56.1,39.3,54.4,41z"/>
	<path class="st0" d="M59.3,9.6L38.1,30.8l7.2,7.2l9.1-9.1c1.7-1.7,4.4-1.7,6,0l15.8,15.8l3-3c0,0,0.1,0,0.1-0.1l8.2-8.2L63.5,9.6
		C62.4,8.4,60.5,8.4,59.3,9.6z"/>
	<path class="st1" d="M60.4,28.9c-1.7-1.7-4.4-1.7-6,0L45.3,38l6,6l3.1-3.1c1.7-1.7,4.4-1.7,6,0l9.7,9.7l6-6L60.4,28.9z"/>
	<path class="st2" d="M85,8c1-1,2.6-1,3.6,0l12.2,12.2l3.6-3.6L88.6,0.7c-1-1-2.6-1-3.6,0L74.1,11.7l3.6,3.6L85,8z"/>
	<path class="st3" d="M77.7,15.3l-3.6-3.6L63.5,1.1c-1.2-1.2-3.1-1.2-4.2,0L27.9,32.6c0,0-0.1,0.1-0.1,0.1l2.5-2.5c2-2,5.2-2,7.2,0
		l0.6,0.6L59.3,9.6c1.2-1.2,3.1-1.2,4.2,0l23.9,23.9l4.2-4.2L77.7,15.3z"/>
	<path class="st4" d="M147.3,49.2l-35.1-35.1c-1.5-1.5-3.9-1.5-5.4,0l-2.4,2.4l-3.6,3.6l-9.1,9.1l-4.2,4.2l-8.2,8.2
		c2.3-2.3,6.1-2.2,8.4,0.1l1.2,1.2l18-18c1.5-1.5,3.9-1.5,5.4,0l29.6,29.6c1.5,1.5,3.9,1.5,5.4,0C148.8,53.1,148.8,50.7,147.3,49.2z
		"/>
	<path class="st5" d="M51.3,44.1l-6-6l-7.2-7.2l-0.6-0.6c-2-2-5.2-2-7.2,0l-2.5,2.5L1.5,59c-2,2-2,5.2,0,7.2c2,2,5.2,2,7.2,0
		l21.5-21.5c2-2,5.2-2,7.2,0l19.4,19.4l7.2-7.2L51.3,44.1z"/>
	<path class="st6" d="M122.3,76.5L88.8,43l-1.2-1.2c-2.3-2.3-6-2.3-8.4-0.1l-3,3l0,0l-6,6l-6.1,6.1l-7.2,7.2l-13,13
		c-2.3,2.3-2.3,6.1,0,8.4c2.3,2.3,6.1,2.3,8.4,0l26.9-26.9c2.3-2.3,6.1-2.3,8.4,0l26.3,26.3c2.3,2.3,6.1,2.3,8.4,0l0,0
		C124.6,82.6,124.6,78.8,122.3,76.5z"/>
</g>
<g>
	<g>
		<path class="st7" d="M164.9,37.3h-0.7V25.7h0.7V37.3z"/>
		<path class="st7" d="M171.1,31.3L171.1,31.3c0.4-0.8,1.2-1.3,2.1-1.3c1.8,0,2.3,1.1,2.3,3v4.3h-0.7V33c0-1.3-0.2-2.3-1.7-2.3
			c-1.8,0-2.1,1.7-2.1,3.1v3.5h-0.7v-7.1h0.7V31.3z"/>
		<path class="st7" d="M183.2,36l2.5-5.9h0.7l-3.2,7.5l-3.3-7.5h0.7L183.2,36z"/>
		<path class="st7" d="M190.8,33.8c0,1.8,1.2,3,2.8,3c1.1,0,2-0.7,2.5-1.6l0.6,0.3c-0.6,1.2-1.8,1.9-3.2,1.9c-2.1,0-3.4-1.7-3.4-3.7
			c0-2,1.4-3.7,3.4-3.7c2.2,0,3.4,1.7,3.4,3.8H190.8z M196.2,33.1c-0.2-1.3-1.2-2.5-2.7-2.5c-1.4,0-2.6,1.1-2.8,2.5H196.2z"/>
		<path class="st7" d="M202.4,31.1L202.4,31.1c0.3-0.6,0.8-1.1,1.6-1.1c0.3,0,0.5,0.1,0.8,0.2l-0.4,0.6c-0.2-0.1-0.3-0.1-0.5-0.1
			c-1.6,0-1.5,1.9-1.5,3v3.6h-0.7v-7.1h0.7V31.1z"/>
		<path class="st7" d="M212,31.4c-0.2-0.5-0.7-0.8-1.2-0.8c-0.6,0-1.2,0.5-1.2,1.1c0,1.7,3.5,0.9,3.5,3.4c0,1.3-1,2.2-2.3,2.2
			c-1.2,0-2.2-0.7-2.4-1.9l0.7-0.2c0.3,0.8,0.8,1.4,1.8,1.4c0.9,0,1.6-0.7,1.6-1.6c0-0.9-0.7-1.2-1.4-1.4c-1-0.4-2.1-0.8-2.1-2
			c0-1.1,0.9-1.8,1.9-1.8c0.7,0,1.5,0.5,1.8,1.1L212,31.4z"/>
		<path class="st7" d="M219.1,27.8c0,0.4-0.3,0.6-0.6,0.6c-0.4,0-0.6-0.3-0.6-0.6c0-0.3,0.3-0.6,0.6-0.6
			C218.9,27.2,219.1,27.5,219.1,27.8z M218.8,37.3h-0.7v-7.1h0.7V37.3z"/>
		<path class="st7" d="M231.3,33.7c0,2.1-1.6,3.7-3.7,3.7c-2,0-3.7-1.7-3.7-3.7c0-2,1.6-3.7,3.7-3.7C229.7,30,231.3,31.6,231.3,33.7
			z M224.6,33.7c0,1.6,1.3,3,3,3c1.7,0,3.1-1.3,3.1-3c0-1.8-1.3-3.1-3.1-3.1C225.8,30.6,224.6,32.1,224.6,33.7z"/>
		<path class="st7" d="M236.8,31.3L236.8,31.3c0.4-0.8,1.2-1.3,2.1-1.3c1.8,0,2.3,1.1,2.3,3v4.3h-0.7V33c0-1.3-0.2-2.3-1.7-2.3
			c-1.8,0-2.1,1.7-2.1,3.1v3.5h-0.7v-7.1h0.7V31.3z"/>
		<path class="st7" d="M246.7,33.8c0,1.8,1.2,3,2.8,3c1.1,0,2-0.7,2.5-1.6l0.6,0.3c-0.6,1.2-1.8,1.9-3.2,1.9c-2.1,0-3.4-1.7-3.4-3.7
			c0-2,1.4-3.7,3.4-3.7c2.2,0,3.4,1.7,3.4,3.8H246.7z M252.2,33.1c-0.2-1.3-1.2-2.5-2.7-2.5c-1.4,0-2.6,1.1-2.8,2.5H252.2z"/>
		<path class="st7" d="M260.6,31.4c-0.2-0.5-0.7-0.8-1.2-0.8c-0.6,0-1.2,0.5-1.2,1.1c0,1.7,3.5,0.9,3.5,3.4c0,1.3-1,2.2-2.3,2.2
			c-1.2,0-2.2-0.7-2.4-1.9l0.7-0.2c0.3,0.8,0.8,1.4,1.8,1.4c0.9,0,1.6-0.7,1.6-1.6c0-0.9-0.7-1.2-1.4-1.4c-1-0.4-2.1-0.8-2.1-2
			c0-1.1,0.9-1.8,1.9-1.8c0.7,0,1.5,0.5,1.8,1.1L260.6,31.4z"/>
	</g>
	<g>
		<path class="st8" d="M181,72h-16.9V45.2h1.4v25.7H181V72z"/>
		<path class="st8" d="M203.1,66.5h1.4c0.3,0.8,0.6,1.3,0.9,1.6c1.7,2.1,3.8,3.2,6.3,3.2c1.6,0,3-0.4,4.1-1.1
			c0.9-0.6,1.5-1.3,2.1-2.2c0.5-0.9,0.8-1.9,0.8-2.8c0-1.6-0.8-3.1-2.5-4.4c-0.4-0.3-1-0.7-1.6-1c-0.6-0.3-1.2-0.6-1.6-0.9
			c-0.5-0.2-1.1-0.6-1.9-1c-0.8-0.4-1.4-0.7-1.7-0.9c-1.5-0.8-2.6-1.6-3.3-2.6c-0.8-1.1-1.2-2.2-1.2-3.5c0-1.2,0.3-2.3,1-3.3
			c0.7-1,1.7-1.8,2.9-2.3c1.1-0.5,2.3-0.7,3.7-0.7v1.2c-1.2,0-2.2,0.2-3.2,0.6c-1.7,0.7-2.7,1.9-3,3.5c-0.1,0.6-0.1,1.3,0.1,2
			c0.2,0.8,0.5,1.4,0.8,1.8c0.3,0.3,0.6,0.7,1.1,1.1c0.5,0.4,0.9,0.6,1.2,0.8s0.8,0.4,1.7,0.9c0.8,0.4,1.2,0.6,1.3,0.7
			c2.4,1.2,4,2.1,4.7,2.7c2,1.5,3,3.3,3,5.4c0,2.5-1.1,4.5-3.4,6.1c-1.3,0.9-2.9,1.4-4.8,1.4c-3.4,0-5.9-1.3-7.6-3.8
			C203.8,68.2,203.4,67.4,203.1,66.5z"/>
		<path class="st8" d="M256,64.1h1.5c-1.1,2.6-2.7,4.7-5,6.2c-2.3,1.6-4.8,2.4-7.7,2.4c-3.8,0-7.1-1.4-9.7-4.1c-2.7-2.7-4-6-4-9.9
			c0-3.9,1.4-7.3,4.3-10.1c2.7-2.6,5.8-3.9,9.5-3.9c2.6,0,5.1,0.8,7.4,2.3c2.2,1.5,3.9,3.4,5,5.8h-1.6c-1.1-2.1-2.6-3.7-4.5-4.9
			c-2-1.3-4.1-1.9-6.4-1.9c-3.2,0-6.1,1.2-8.5,3.6c-2.6,2.6-3.9,5.7-3.9,9.2c0,3.5,1.2,6.5,3.6,9c2.4,2.5,5.3,3.8,8.8,3.8
			c2.4,0,4.6-0.7,6.7-2.1C253.5,68,255,66.3,256,64.1z"/>
		<path class="st8" d="M279,45.2h1.4v15.9c0,1.3,0,2.3-0.1,3c0,0.7-0.2,1.5-0.5,2.5c-0.3,1-0.8,1.8-1.4,2.7c-2,2.3-4.7,3.5-8.1,3.5
			c-3.4,0-6.1-1.2-8-3.5c-0.6-0.8-1.1-1.7-1.4-2.7c-0.3-1-0.5-1.8-0.5-2.5c0-0.7-0.1-1.7-0.1-3V45.2h1.4v15.9c0,1.2,0,2.2,0.1,2.8
			c0,0.6,0.2,1.4,0.4,2.2c0.3,0.9,0.6,1.6,1.2,2.3c1.8,2,4.1,3.1,7,3.1c2.9,0,5.2-1,7-3c0.5-0.7,0.9-1.4,1.2-2.3
			c0.3-0.9,0.4-1.6,0.4-2.2c0-0.6,0.1-1.6,0.1-2.8V45.2z"/>
		<path class="st8" d="M293.3,44.6L305.2,72h-1.5l-10.9-25.1l-0.1,0L282.5,72H281l11.1-27.5H293.3z M299.7,56.5l-0.8-1.7l4.2-10.2
			h1.1L315.5,72h-1.5L303.7,47l0,0L299.7,56.5z"/>
		<path class="st8" d="M330.4,58.5c0.9,0.4,1.6,0.9,2.2,1.4c1.3,1.3,1.9,2.9,1.9,5c0,2-0.4,3.5-1.2,4.6c-0.7,1-1.7,1.7-3.1,2.1
			c-1,0.3-2.4,0.4-4.1,0.4h-8.2V57.4h5.9c1.2,0,2.4-0.1,3.5-0.4c1.5-0.3,2.6-0.9,3.3-1.7c1-1,1.4-2.4,1.2-4.2
			c-0.1-1.4-0.8-2.6-1.9-3.6c-1-0.8-2-1.2-3-1.2h-7.6v9.9h-1.4V45.2h9c1.4,0,2.7,0.5,3.9,1.4c1.4,1.1,2.2,2.6,2.4,4.5
			c0.2,2.1-0.3,3.8-1.5,5.1c-0.9,1-2.3,1.7-4.1,2.1c-1.1,0.3-2.4,0.4-3.8,0.4h-4.5v12.2h6.8c1.5,0,2.7-0.1,3.5-0.3
			c1.2-0.3,2-0.9,2.5-1.6c0.6-0.9,1-2.2,1-3.9c0-1.8-0.5-3.1-1.5-4.1c-0.7-0.7-1.7-1.3-2.9-1.6C329.2,59.1,329.8,58.8,330.4,58.5z"
			/>
		<path class="st8" d="M339.9,57.2h-1.4v-12h9.6c2.3,0,4,0.8,5.3,2.3c1,1.3,1.6,2.8,1.6,4.6c0,2.8-1.1,4.9-3.4,6.2
			c-1.6,0.9-3.7,1.4-6.2,1.4h-5.4V72h-1.4V58.4h1.4h5.4c2.2,0,4-0.4,5.3-1.1c1.9-1.1,2.9-2.8,2.9-5.2c0-1.6-0.4-2.9-1.3-3.9
			c-1-1.2-2.4-1.8-4.1-1.8h-8.2V57.2z M351,59.8l-1.3,0.4l5.8,11.8L357,72L351,59.8z"/>
		<path class="st8" d="M359.7,58.9V45.2h13.8v1.2h-12.4v11.3h6.9v1.2H359.7z M374.5,72h-14.8V60.1h1.4v10.7h13.4V72z"/>
		<path class="st8" d="M374.4,66.5h1.4c0.3,0.8,0.6,1.3,0.9,1.6c1.7,2.1,3.8,3.2,6.3,3.2c1.6,0,3-0.4,4.1-1.1
			c0.9-0.6,1.5-1.3,2.1-2.2c0.5-0.9,0.8-1.9,0.8-2.8c0-1.6-0.8-3.1-2.5-4.4c-0.4-0.3-1-0.7-1.6-1c-0.6-0.3-1.2-0.6-1.6-0.9
			c-0.5-0.2-1.1-0.6-1.9-1c-0.8-0.4-1.4-0.7-1.7-0.9c-1.5-0.8-2.6-1.6-3.3-2.6c-0.8-1.1-1.2-2.2-1.2-3.5c0-1.2,0.3-2.3,1-3.3
			c0.7-1,1.7-1.8,2.9-2.3c1.1-0.5,2.3-0.7,3.7-0.7v1.2c-1.2,0-2.2,0.2-3.2,0.6c-1.7,0.7-2.7,1.9-3,3.5c-0.1,0.6-0.1,1.3,0.1,2
			s0.5,1.4,0.8,1.8c0.3,0.3,0.6,0.7,1.1,1.1c0.5,0.4,0.9,0.6,1.2,0.8c0.3,0.2,0.8,0.4,1.7,0.9c0.8,0.4,1.2,0.6,1.3,0.7
			c2.4,1.2,4,2.1,4.7,2.7c2,1.5,3,3.3,3,5.4c0,2.5-1.1,4.5-3.4,6.1c-1.3,0.9-2.9,1.4-4.8,1.4c-3.4,0-5.9-1.3-7.6-3.8
			C375.1,68.2,374.7,67.4,374.4,66.5z"/>
		<g>
			<polygon class="st8" points="191.6,46.5 191.7,46.5 197.6,62 199.1,62.1 192.5,44.6 190.9,44.6 184.3,62.1 185.7,62.1 			"/>
			<polygon class="st8" points="199.6,63.3 198.1,63.3 198.5,64.5 198.6,64.5 201.4,72 202.9,72 			"/>
			<polygon class="st8" points="182,72 185.3,63.3 183.8,63.3 180.5,72 182,72 182,72 			"/>
		</g>
	</g>
</g>
</svg>
